# xmcd
#
# Track frame offsets: 
#        150
#        10011
#        21693
#        34460
#        47574
#        74347
#        86022
#        92985
#        107866
#        121843
#        135449
#        147334
#        162246
#        175277
#
# Disc length: 2707 seconds
#
# Revision: 2
# Processed by: cddbd v1.5.2PL0 Copyright (c) Steve Scherf et al.
# Submitted via: ExactAudioCopyFreeDBPlugin 1.0
#
DISCID=c30a910e
DTITLE=Ike and Tina Turner - The Collection [Entertain Me Europe]
DYEAR=2008
DGENRE=Rhythm and Blues
TTITLE0=Ain't Nobody's Business
TTITLE1=It's Gonna Work Out Fine
TTITLE2=There's Nothing I Wouldn't Do
TTITLE3=If I Knew Then, (What I Know Now)
TTITLE4=All I Could Do is Cry
TTITLE5=Good Good Lovin'
TTITLE6=Tell Me Why
TTITLE7=Baby Get it On
TTITLE8=Oooh Poo Pee Do (live)
TTITLE9=Never Been to Spain
TTITLE10=Bolic
TTITLE11=Oh My My (Can You Boogie)
TTITLE12=Louie Louie
TTITLE13=My Man's Wedding Vows - All I Could Do is Cry (live)
EXTD=
EXTT0=
EXTT1=
EXTT2=
EXTT3=
EXTT4=
EXTT5=
EXTT6=
EXTT7=
EXTT8=
EXTT9=
EXTT10=
EXTT11=
EXTT12=
EXTT13=
PLAYORDER=
